<?xml version="1.0" encoding="utf-8"?>
<!-- Generator: Adobe Illustrator 24.3.0, SVG Export Plug-In . SVG Version: 6.00 Build 0)  -->
<svg version="1.1" id="Layer_1" xmlns="http://www.w3.org/2000/svg" xmlns:xlink="http://www.w3.org/1999/xlink" x="0px" y="0px"
	 viewBox="0 0 1037.9 716.7" style="enable-background:new 0 0 1037.9 716.7;" xml:space="preserve">
<style type="text/css">
	.st0{fill-rule:evenodd;clip-rule:evenodd;fill:#24B9EC;}
	.st1{fill-rule:evenodd;clip-rule:evenodd;fill:#23346B;}
</style>
<text transform="matrix(1 0 0 1 1104.3721 491.0459)" style="fill:#6D6E71; font-family:'ConfigRoundedLight'; font-size:13.7088px;">HABER SİTESİ YAZILIM ÇÖZÜMLERİ</text>
<desc>Created with Sketch.</desc>
<g id="Page-1_1_">
	<g id="Paytm-Mall-Copy">
		<g id="Page-1">
			<g id="Group-Copy">
				<path id="Fill-1" class="st0" d="M880.1,320.3c-6.6-19.1-24.5-32.9-45.5-32.9h-0.4c-13.7,0-26,5.8-34.7,15.1
					c-8.8-9.3-21.1-15.1-34.7-15.1h-0.4c-12,0-23,4.5-31.4,11.9v-3.7c-0.3-3.8-3.3-6.7-7.1-6.7h-32.2c-3.9,0-7.1,3.3-7.1,7.3v178.4
					c0,4,3.2,7.3,7.1,7.3h32.2c3.6,0,6.5-2.7,7-6.3V370.9l0-23.4c0-0.4,0-0.9,0.1-1.3c0.5-5.7,4.6-10.4,11.1-11h5.9
					c2.7,0.2,5,1.2,6.8,2.7c2.8,2.3,4.4,5.8,4.4,9.6l0,23.4h0v99.3l0.1,4.7c0,4,3.2,7.3,7.1,7.3h32.2c3.8,0,6.9-3.1,7.1-6.9V370.8
					l0-23.4c0-4.2,1.9-8,5.3-10.3c1.6-1.1,3.6-1.8,5.9-2h5.9c7,0.6,11.2,6,11.2,12.3l0,23.4h0v6.6h0.1v97.2c0,4,3.2,7.3,7.1,7.3
					h32.2c3.9,0,7.1-3.3,7.1-7.3V337.7C882.5,328.4,881.5,324.4,880.1,320.3"/>
				<path id="Fill-3" class="st0" d="M661.8,289.3h-18.4v-30.4h0c0,0,0-0.1,0-0.1c0-3.7-2.9-6.6-6.5-6.6c-0.4,0-0.8,0.1-1.2,0.1
					c-20.5,5.7-16.3,34.6-53.7,37h-3.6c-0.5,0-1.1,0.1-1.6,0.2h0l0,0c-3.2,0.7-5.6,3.6-5.6,7.1v32.8c0,4,3.2,7.3,7.1,7.3h19.4v95.1
					c0,0.1,0,0.1,0,0.2v44c0,4,3.2,7.2,7,7.2h31.9c3.9,0,7-3.2,7-7.2v-30.9h0V336.7h18.1c3.9,0,7.1-3.3,7.1-7.3v-32.8
					C669,292.6,665.8,289.3,661.8,289.3"/>
				<path id="Fill-4" class="st1" d="M545.8,289.3h-32.2c-3.9,0-7.1,3.3-7.1,7.3v17.6h-0.1v21.5c0.1,0.5,0.2,1,0.2,1.5v22.2
					c0,0,0,0.1,0,0.1v5c-0.1,4.2-3.4,7.6-7.5,7.6h-13.5c-4.2,0-7.6-3.4-7.6-7.7v-50.2h-0.1v-17.6c0-4-3.2-7.3-7.1-7.3h-32.2
					c-3.9,0-7.1,3.3-7.1,7.3v74.5c0,28.3,19.8,48.4,47.6,48.4h20.4c0,0,0.5,0,1.1,0.1c3.8,0.4,6.7,3.7,6.7,7.6
					c0,3.9-2.9,7.1-6.6,7.6c-0.2,0-0.3,0.1-0.5,0.1l-9.2,0.2h-38c-3.9,0-7.1,3.3-7.1,7.3v32.8c0,4,3.2,7.3,7.1,7.3h52.7
					c27.8,0,47.6-20.2,47.6-48.4V296.6C553,292.6,549.8,289.3,545.8,289.3"/>
				<path id="Fill-5" class="st1" d="M233.8,349.5v20.3c0,4.3-3.4,7.7-7.6,7.7h-3c-0.1,0-0.1,0-0.2,0h-17.2v-40.6h20.5
					c4.2,0,7.6,3.4,7.6,7.7V349.5L233.8,349.5L233.8,349.5z M236.7,289.3h-38.3c-0.2,0-0.3,0-0.4,0c-0.1,0-0.1,0-0.2,0h-31.6
					c-3.9,0-7,3.2-7,7.1v32.2c0,0.1,0,0.1,0,0.2c0,0.2,0,0.3,0,0.5V475c0,4,2.9,7.2,6.5,7.3h32.8c3.9,0,7.1-3.2,7.1-7.3l0.1-49.9
					h30.8c25.8,0,43.8-18.2,43.8-44.7v-46.3C280.5,307.6,262.5,289.3,236.7,289.3L236.7,289.3L236.7,289.3z"/>
				<path id="Fill-6" class="st1" d="M367.6,426.7v5.1c0,0.4-0.1,0.8-0.1,1.2c-0.1,0.4-0.2,0.7-0.3,1.1v0c-1,2.9-3.8,4.9-7.2,4.9
					h-13.4c-4.2,0-7.6-3.2-7.6-7.2v-6.2c0-0.1,0-0.2,0-0.2l0-16.5c0,0,0,0,0,0v-5.1c0,0,0,0,0,0c0-4,3.4-7.2,7.6-7.2H360
					c4.2,0,7.6,3.2,7.6,7.2V426.7L367.6,426.7L367.6,426.7z M362.5,289.5h-44.7c-4,0-7.2,3.1-7.2,6.8v12.8c0,0.1,0,0.2,0,0.3
					c0,0.1,0,0.2,0,0.3v17.5c0,4,3.4,7.2,7.6,7.2H334c0.1,0,0.1,0,0.2,0h26.6c3.4,0.5,6,3,6.4,6.9v4.2c-0.4,3.7-3,6.4-6.2,6.7h-21.1
					c-28.1,0-48,19-48,45.7v38.2c0,26.5,17.2,45.4,45,45.4h39.7c0.3,0,0.5,0,0.8,0c0.1,0,0.2,0,0.3,0h17.7c10.5,0,19-8.1,19-18.1
					V338.8C414.3,308.6,399,289.5,362.5,289.5L362.5,289.5L362.5,289.5z"/>
			</g>
		</g>
	</g>
</g>
</svg>
